<svg xmlns="http://www.w3.org/2000/svg" viewBox="0 0 1225.94 231.72" width="1226" height="232" role="img" aria-label="Numin" xmlns:c2pa="http://c2pa.org/manifest"><metadata><c2pa:manifest>AAAWgmp1bWIAAAAeanVtZGMycGEAEQAQgAAAqgA4m3EDYzJwYQAAABZcanVtYgAAAEdqdW1kYzJtYQARABCAAACqADibcQN1cm46YzJwYTo3M2ZlNGRmNy01ZTQ3LTRhMDAtYTY3OC1iNTQxNTRiNmQ5MzUAAAADl2p1bWIAAAApanVtZGMyYXMAEQAQgAAAqgA4m3EDYzJwYS5hc3NlcnRpb25zAAAAALxqdW1iAAAARGp1bWRjYm9yABEAEIAAAKoAOJtxE2MycGEuaW5ncmVkaWVudC52MwAAAAAYYzJzaIiUVDp1BxPYamB7bzDaWfUAAABwY2JvcqNpZGM6Zm9ybWF0bWltYWdlL3N2Zyt4bWxqaW5zdGFuY2VJRHgseG1wOmlpZDo4M2RmMWMyNy1jY2FhLTRlM2ItYjliZC03YjBkZTNiYTliMDRscmVsYXRpb25zaGlwaHBhcmVudE9mAAAB4mp1bWIAAABBanVtZGNib3IAEQAQgAAAqgA4m3ETYzJwYS5hY3Rpb25zLnYyAAAAABhjMnNocKnLQdAORcKEmZSlYG6ahgAAAZljYm9yomdhY3Rpb25zgqJmYWN0aW9ua2MycGEub3BlbmVkanBhcmFtZXRlcnOha2luZ3JlZGllbnRzgaJjdXJseC1zZWxmI2p1bWJmPWMycGEuYXNzZXJ0aW9ucy9jMnBhLmluZ3JlZGllbnQudjNkaGFzaFggDRZ//3rsMJ4vrWj5wZP9vdrenoOinWAu0FfgF9COHaqkZmFjdGlvbngdY29tLmFudGhyb3BpYy5jbGF1ZGUucHJvdmlkZWRqcGFyYW1ldGVyc6F4H2NvbS5hbnRocm9waWMub3JpZ2luLWNvbmZpZGVuY2VndW5rbm93bmtkZXNjcmlwdGlvbnhmQ2xhdWRlIHByb3ZpZGVkIHRoaXMgZmlsZSBhdCB0aGUgcmVxdWVzdCBvZiBhIHVzZXIgYW5kIG1heSBoYXZlIGNyZWF0ZWQgb3IgbW9kaWZpZWQgdGhlIGZpbGUgY29udGVudHMubXNvZnR3YXJlQWdlbnShZG5hbWVmQ2xhdWRlcmFsbEFjdGlvbnNJbmNsdWRlZPUAAADIanVtYgAAAEBqdW1kY2JvcgARABCAAACqADibcRNjMnBhLmhhc2guZGF0YQAAAAAYYzJzaDIeVCzyPNHgne7oE037IWcAAACAY2JvcqVjYWxnZnNoYTI1NmNwYWRNAAAAAAAAAAAAAAAAAGRoYXNoWCBY78WPRXaZsU8HijBEWs9H2GpNvrUcpFIDnaxXs41OV2RuYW1lbmp1bWJmIG1hbmlmZXN0amV4Y2x1c2lvbnOBomVzdGFydBi8Zmxlbmd0aBkeBAAAAj5qdW1iAAAAJ2p1bWRjMmNsABEAEIAAAKoAOJtxA2MycGEuY2xhaW0udjIAAAACD2Nib3KlY2FsZ2ZzaGEyNTZpc2lnbmF0dXJleE1zZWxmI2p1bWJmPS9jMnBhL3VybjpjMnBhOjczZmU0ZGY3LTVlNDctNGEwMC1hNjc4LWI1NDE1NGI2ZDkzNS9jMnBhLnNpZ25hdHVyZWppbnN0YW5jZUlEeCx4bXA6aWlkOjIyYmE4NWJiLWEzOWItNDY0MS1iMmRlLTJkNWJjMTVjYzBmNHJjcmVhdGVkX2Fzc2VydGlvbnODomN1cmx4LXNlbGYjanVtYmY9YzJwYS5hc3NlcnRpb25zL2MycGEuaW5ncmVkaWVudC52M2RoYXNoWCANFn//euwwni+taPnBk/292t6eg6KdYC7QV+AX0I4dqqJjdXJseCpzZWxmI2p1bWJmPWMycGEuYXNzZXJ0aW9ucy9jMnBhLmFjdGlvbnMudjJkaGFzaFggHWUSExlHy65mrEj3b67dmznY2of2RNmX31RMBQzN94eiY3VybHgpc2VsZiNqdW1iZj1jMnBhLmFzc2VydGlvbnMvYzJwYS5oYXNoLmRhdGFkaGFzaFgg/26PaM1SNWmdbb6zVAwxCw7CaLGAhH+2knOYikj+Iz10Y2xhaW1fZ2VuZXJhdG9yX2luZm+jZG5hbWVvQW50aHJvcGljIEZpbGVzZ3ZlcnNpb25lMS4wLjBrc3BlY1ZlcnNpb25lMi40LjAAABA4anVtYgAAAChqdW1kYzJjcwARABCAAACqADibcQNjMnBhLnNpZ25hdHVyZQAAABAIY2JvctKEWQISogEmGCFZAgowggIGMIIBjaADAgECAhRA5aAK7sI50L64g/oGQgU9Z1UTADAKBggqhkjOPQQDAzBJMRcwFQYDVQQKEw5BbnRocm9waWMsIFBCQzEuMCwGA1UEAxMlQW50aHJvcGljIENvbnRlbnQgQ3JlZGVudGlhbHMgUm9vdCBDQTAeFw0yNjA4MDcxODQzNTZaFw0yODA4MDYxOTQzNTZaMEQxFzAVBgNVBAoTDkFudGhyb3BpYywgUEJDMSkwJwYDVQQDEyBBbnRocm9waWMgQ2xhdWRlIENvbnRlbnQgU2lnbmluZzBZMBMGByqGSM49AgEGCCqGSM49AwEHA0IABJh6CmvLUBgFFNU0vUKlOVtE6djd17L5SuwX0LemFisBM3dkd/3cyjxFA3Qo5S46fX0/ihY0VZ7mfb9KF703t5OjWDBWMA4GA1UdDwEB/wQEAwIHgDAVBgNVHSUEDjAMBgorBgEEAYPoXgIBMAwGA1UdEwEB/wQCMAAwHwYDVR0jBBgwFoAUzlHiBIFOZFsj+OPEz5o+nMHXXMIwCgYIKoZIzj0EAwMDZwAwZAIwMXMdFJ4BetLLVY7ORuE9noqbbAZOZn/aArXyTwFAZfKrPzxF2vPoJNf1+UCdg1XGAjBwX1zd9WGqYkqmL5SFqw1QySjr1zJfpJM9+1rdDwSPLMOPOjKuiXjoU/pUUeG9RwmhY3BhZFkNngAAAAAAAAAAAAAAAAAAAAAAAAAAAAAAAAAAAAAAAAAAAAAAAAAAAAAAAAAAAAAAAAAAAAAAAAAAAAAAAAAAAAAAAAAAAAAAAAAAAAAAAAAAAAAAAAAAAAAAAAAAAAAAAAAAAAAAAAAAAAAAAAAAAAAAAAAAAAAAAAAAAAAAAAAAAAAAAAAAAAAAAAAAAAAAAAAAAAAAAAAAAAAAAAAAAAAAAAAAAAAAAAAAAAAAAAAAAAAAAAAAAAAAAAAAAAAAAAAAAAAAAAAAAAAAAAAAAAAAAAAAAAAAAAAAAAAAAAAAAAAAAAAAAAAAAAAAAAAAAAAAAAAAAAAAAAAAAAAAAAAAAAAAAAAAAAAAAAAAAAAAAAAAAAAAAAAAAAAAAAAAAAAAAAAAAAAAAAAAAAAAAAAAAAAAAAAAAAAAAAAAAAAAAAAAAAAAAAAAAAAAAAAAAAAAAAAAAAAAAAAAAAAAAAAAAAAAAAAAAAAAAAAAAAAAAAAAAAAAAAAAAAAAAAAAAAAAAAAAAAAAAAAAAAAAAAAAAAAAAAAAAAAAAAAAAAAAAAAAAAAAAAAAAAAAAAAAAAAAAAAAAAAAAAAAAAAAAAAAAAAAAAAAAAAAAAAAAAAAAAAAAAAAAAAAAAAAAAAAAAAAAAAAAAAAAAAAAAAAAAAAAAAAAAAAAAAAAAAAAAAAAAAAAAAAAAAAAAAAAAAAAAAAAAAAAAAAAAAAAAAAAAAAAAAAAAAAAAAAAAAAAAAAAAAAAAAAAAAAAAAAAAAAAAAAAAAAAAAAAAAAAAAAAAAAAAAAAAAAAAAAAAAAAAAAAAAAAAAAAAAAAAAAAAAAAAAAAAAAAAAAAAAAAAAAAAAAAAAAAAAAAAAAAAAAAAAAAAAAAAAAAAAAAAAAAAAAAAAAAAAAAAAAAAAAAAAAAAAAAAAAAAAAAAAAAAAAAAAAAAAAAAAAAAAAAAAAAAAAAAAAAAAAAAAAAAAAAAAAAAAAAAAAAAAAAAAAAAAAAAAAAAAAAAAAAAAAAAAAAAAAAAAAAAAAAAAAAAAAAAAAAAAAAAAAAAAAAAAAAAAAAAAAAAAAAAAAAAAAAAAAAAAAAAAAAAAAAAAAAAAAAAAAAAAAAAAAAAAAAAAAAAAAAAAAAAAAAAAAAAAAAAAAAAAAAAAAAAAAAAAAAAAAAAAAAAAAAAAAAAAAAAAAAAAAAAAAAAAAAAAAAAAAAAAAAAAAAAAAAAAAAAAAAAAAAAAAAAAAAAAAAAAAAAAAAAAAAAAAAAAAAAAAAAAAAAAAAAAAAAAAAAAAAAAAAAAAAAAAAAAAAAAAAAAAAAAAAAAAAAAAAAAAAAAAAAAAAAAAAAAAAAAAAAAAAAAAAAAAAAAAAAAAAAAAAAAAAAAAAAAAAAAAAAAAAAAAAAAAAAAAAAAAAAAAAAAAAAAAAAAAAAAAAAAAAAAAAAAAAAAAAAAAAAAAAAAAAAAAAAAAAAAAAAAAAAAAAAAAAAAAAAAAAAAAAAAAAAAAAAAAAAAAAAAAAAAAAAAAAAAAAAAAAAAAAAAAAAAAAAAAAAAAAAAAAAAAAAAAAAAAAAAAAAAAAAAAAAAAAAAAAAAAAAAAAAAAAAAAAAAAAAAAAAAAAAAAAAAAAAAAAAAAAAAAAAAAAAAAAAAAAAAAAAAAAAAAAAAAAAAAAAAAAAAAAAAAAAAAAAAAAAAAAAAAAAAAAAAAAAAAAAAAAAAAAAAAAAAAAAAAAAAAAAAAAAAAAAAAAAAAAAAAAAAAAAAAAAAAAAAAAAAAAAAAAAAAAAAAAAAAAAAAAAAAAAAAAAAAAAAAAAAAAAAAAAAAAAAAAAAAAAAAAAAAAAAAAAAAAAAAAAAAAAAAAAAAAAAAAAAAAAAAAAAAAAAAAAAAAAAAAAAAAAAAAAAAAAAAAAAAAAAAAAAAAAAAAAAAAAAAAAAAAAAAAAAAAAAAAAAAAAAAAAAAAAAAAAAAAAAAAAAAAAAAAAAAAAAAAAAAAAAAAAAAAAAAAAAAAAAAAAAAAAAAAAAAAAAAAAAAAAAAAAAAAAAAAAAAAAAAAAAAAAAAAAAAAAAAAAAAAAAAAAAAAAAAAAAAAAAAAAAAAAAAAAAAAAAAAAAAAAAAAAAAAAAAAAAAAAAAAAAAAAAAAAAAAAAAAAAAAAAAAAAAAAAAAAAAAAAAAAAAAAAAAAAAAAAAAAAAAAAAAAAAAAAAAAAAAAAAAAAAAAAAAAAAAAAAAAAAAAAAAAAAAAAAAAAAAAAAAAAAAAAAAAAAAAAAAAAAAAAAAAAAAAAAAAAAAAAAAAAAAAAAAAAAAAAAAAAAAAAAAAAAAAAAAAAAAAAAAAAAAAAAAAAAAAAAAAAAAAAAAAAAAAAAAAAAAAAAAAAAAAAAAAAAAAAAAAAAAAAAAAAAAAAAAAAAAAAAAAAAAAAAAAAAAAAAAAAAAAAAAAAAAAAAAAAAAAAAAAAAAAAAAAAAAAAAAAAAAAAAAAAAAAAAAAAAAAAAAAAAAAAAAAAAAAAAAAAAAAAAAAAAAAAAAAAAAAAAAAAAAAAAAAAAAAAAAAAAAAAAAAAAAAAAAAAAAAAAAAAAAAAAAAAAAAAAAAAAAAAAAAAAAAAAAAAAAAAAAAAAAAAAAAAAAAAAAAAAAAAAAAAAAAAAAAAAAAAAAAAAAAAAAAAAAAAAAAAAAAAAAAAAAAAAAAAAAAAAAAAAAAAAAAAAAAAAAAAAAAAAAAAAAAAAAAAAAAAAAAAAAAAAAAAAAAAAAAAAAAAAAAAAAAAAAAAAAAAAAAAAAAAAAAAAAAAAAAAAAAAAAAAAAAAAAAAAAAAAAAAAAAAAAAAAAAAAAAAAAAAAAAAAAAAAAAAAAAAAAAAAAAAAAAAAAAAAAAAAAAAAAAAAAAAAAAAAAAAAAAAAAAAAAAAAAAAAAAAAAAAAAAAAAAAAAAAAAAAAAAAAAAAAAAAAAAAAAAAAAAAAAAAAAAAAAAAAAAAAAAAAAAAAAAAAAAAAAAAAAAAAAAAAAAAAAAAAAAAAAAAAAAAAAAAAAAAAAAAAAAAAAAAAAAAAAAAAAAAAAAAAAAAAAAAAAAAAAAAAAAAAAAAAAAAAAAAAAAAAAAAAAAAAAAAAAAAAAAAAAAAAAAAAAAAAAAAAAAAAAAAAAAAAAAAAAAAAAAAAAAAAAAAAAAAAAAAAAAAAAAAAAAAAAAAAAAAAAAAAAAAAAAAAAAAAAAAAAAAAAAAAAAAAAAAAAAAAAAAAAAAAAAAAAAAAAAAAAAAAAAAAAAAAAAAAAAAAAAAAAAAAAAAAAAAAAAAAAAAAAAAAAAAAAAAAAAAAAAAAAAAAAAAAAAAAAAAAAAAAAAAAAAAAAAAAAAAAAAAAAAAAAAAAAAAAAAAAAAAAAAAAAAAAAAAAAAAAAAAAAAAAAAAAAAAAAAAAAAAAAAAAAAAAAAAAAAAAAAAAAAAAAAAAAAAAAAAAAAAAAAAAAAAAAAAAAAAAAAAAAAAAAAAAAAAAAAAAAAAAAAAAAAAAAAAAAAAAAAAAAAAAAAAAAAAAAAAAAAAAAAAAAAAAAAAAAAAAAAAAAAAAAAAAAAAAAAAAAAAAAAAAAAAAAAAAAAAAAAAAAAAAAAAAAAAAAAAAAAAAAAAAAAAAAAAAAAAAAAAAAAAAAAAAAAAAAAAAAAAAAAAAAAAAAAAAAAAAAAAAAAAAAAAAAAAAAAAAAAAAAAAAAAAAAAAAAAAAAAAAAAAAAAAAAAAAAAAAAAAAAAAAAAAAAAAAAAAAAAAAAAAAAAAAAAAAAAAAAAAAAAAAAAAAAAAAAAAAAAAAAAAAAAAAAAAAAAAAAAAAAAAAAAAAAAAAAAAAAAAAAAAAAAAAAAAAAAAAAAAAAAAAAAAAAAAAAAAAAAAAAAAAAAAAAAAAAAAAAAAAAAAAAAAAAAAAAAAAAAAAAAAAAAAAAAAAAAAAAAAAAAAAAAAAAAAAAAAAAAAAAAAAAAAAAAAAAAAAAAAAAAAAAAAAAAAAAAAAAAAAAAAAAAAAAAAAAAAAAAAAAAAAAAAAAAAAAAAAAAAAAAAAAAAAAAAAAAAAAAAAAAAAAAAAAAAAAAAAAAAAAAAAAAAAAAAAAAAAAAAAAAAAAAAAAAAAAAAAAAAAAAAAAAAAAAAAAAAAAAAAAAAAAAAAAAAAAAAAAAAAAAAAAAAAAAAAAAAAAAAAAAAAAAAAAAAAAAAAAAAAAAAAAAAAAAAAAAAAAAAAAAAAAAAAAAAAAAAAAAAAAAAAAAAAAAAAAAAAAAAAAAAAAAAAAAAAAAAAAAAAAAAAAAAAAAAAAAAAAAAAAAAAAAAAAAAAAAAAAAAAAAAAAAAAAAAAAAAAAAAAAAAAAAAAAAAAAAAAAAAAAAAAAAAAAAAAAAAAAAAAAAAAAAAAAAAAAAAAAAAAAAAAAAAAAAAAAAAAAAAAAAAAAAAAAAAAAAAAAAAAAAAAAAAAAAAAAAAAAAAAAAAAAAAAAAAAAAAAAAAAAAAAAAAAAAAAAAAAAAAAAAAAAAAAAAAAAAAAAAAAAAAAAAAAAAAAAAAAAAAAAAAAAAAAAAAAAAAAAAAAAAAAAAAAAAAAAAAAAAAAAAAAAAAAAAAAAAAAAAAAAAAAAAAAAAAAAAAAAAAAAAAAAAAAAAAAAAAAAAAAAAAAAAAAAAAAAAAAAAAAAAAAAPZYQL3A2LRFdu1f3pxo/9LbYdoeeuMTxtPNZF3TUejI1Y6OyVkoE/LY/siwptNmn7jzpC9Hr0Q/Nq+X7D99/u1sTLw=</c2pa:manifest></metadata><title>Numin</title><g transform="translate(-23.07 226.85)"><path d="M23.07 -140.72 67.92 -141.38Q69.23 -127.40 69.88 -113.75Q70.53 -100.10 70.69 -87.43Q70.85 -74.75 70.85 -62.73V0.00Q67.92 0.65 61.59 1.46Q55.25 2.27 48.75 2.27Q34.45 2.27 28.76 -2.60Q23.07 -7.48 23.07 -20.15ZM196.30 -57.20 151.12 -56.88Q148.85 -80.60 148.53 -102.05Q148.20 -123.50 148.20 -143.00V-197.60Q151.45 -198.25 157.62 -199.23Q163.80 -200.20 170.62 -200.20Q184.60 -200.20 190.45 -195.16Q196.30 -190.12 196.30 -177.78ZM196.30 -72.80V-6.17Q192.08 -2.27 184.44 0.16Q176.80 2.60 166.40 2.60Q155.35 2.60 145.76 -0.97Q136.18 -4.55 130.00 -16.90L90.67 -91.65Q87.10 -98.80 83.69 -105.95Q80.28 -113.10 77.03 -120.41Q73.78 -127.73 70.53 -135.20L23.07 -124.48V-188.50Q26.98 -194.03 35.26 -196.95Q43.55 -199.88 53.30 -199.88Q64.03 -199.88 73.61 -196.30Q83.20 -192.72 89.38 -180.70L129.03 -105.62Q132.60 -98.80 136.18 -91.49Q139.75 -84.17 143.00 -77.03Q146.25 -69.88 149.18 -62.40ZM237.90 -60.77V-84.17H286.00V-61.10Q286.00 -46.15 293.64 -39.65Q301.28 -33.15 315.25 -33.15Q324.03 -33.15 329.88 -34.77Q335.73 -36.40 338.65 -38.02V-84.17H387.08V-32.18Q387.08 -24.38 383.99 -18.85Q380.90 -13.33 374.08 -9.10Q363.68 -2.60 348.56 1.14Q333.45 4.88 314.93 4.88Q291.85 4.88 274.46 -1.95Q257.07 -8.78 247.49 -23.24Q237.90 -37.70 237.90 -60.77ZM387.08 -69.55H338.65V-155.35Q341.90 -156.33 347.75 -157.30Q353.60 -158.28 360.43 -158.28Q374.40 -158.28 380.74 -153.56Q387.08 -148.85 387.08 -135.53ZM286.00 -69.55H237.90V-155.35Q240.83 -156.33 246.68 -157.30Q252.53 -158.28 259.35 -158.28Q273.32 -158.28 279.66 -153.56Q286.00 -148.85 286.00 -135.53ZM566.15 -107.58V-70.53H517.73V-101.40Q517.73 -112.45 511.23 -117.65Q504.73 -122.85 494.98 -122.85Q487.83 -122.85 482.14 -120.74Q476.45 -118.62 472.55 -116.35V-70.53H424.45V-121.23Q424.45 -129.35 427.86 -134.71Q431.28 -140.08 437.78 -144.30Q448.50 -151.78 464.10 -156.32Q479.70 -160.88 496.60 -160.88Q512.20 -160.88 525.85 -156.00Q539.50 -151.12 549.58 -141.05Q552.18 -139.10 554.61 -136.99Q557.05 -134.88 558.35 -132.28Q561.60 -127.08 563.88 -120.58Q566.15 -114.08 566.15 -107.58ZM659.43 -102.70V-70.53H611.33V-101.40Q611.33 -112.45 605.15 -117.65Q598.98 -122.85 588.90 -122.85Q581.43 -122.85 574.76 -119.76Q568.10 -116.67 563.23 -112.45L537.88 -140.40Q548.60 -148.85 562.25 -154.86Q575.90 -160.88 595.73 -160.88Q612.62 -160.88 627.25 -155.03Q641.88 -149.18 650.65 -136.50Q659.43 -123.83 659.43 -102.70ZM424.45 -85.48H472.55V-0.33Q469.30 0.65 463.45 1.46Q457.60 2.27 450.78 2.27Q437.12 2.27 430.79 -2.60Q424.45 -7.48 424.45 -20.15ZM517.73 -85.48H566.15V-0.33Q562.90 0.65 557.05 1.46Q551.20 2.27 544.38 2.27Q530.40 2.27 524.06 -2.60Q517.73 -7.48 517.73 -20.15ZM611.33 -85.48H659.43V-0.33Q656.50 0.65 650.65 1.46Q644.80 2.27 637.98 2.27Q624.00 2.27 617.66 -2.60Q611.33 -7.48 611.33 -20.15Z" fill="#FFFFFF"/><g transform="translate(678.60 0)"><path d="M17.23 -200.85Q17.23 -211.90 24.86 -219.38Q32.50 -226.85 44.20 -226.85Q56.23 -226.85 63.70 -219.38Q71.17 -211.90 71.17 -200.85Q71.17 -190.12 63.70 -182.32Q56.23 -174.53 44.20 -174.53Q32.50 -174.53 24.86 -182.32Q17.23 -190.12 17.23 -200.85ZM20.15 -85.80H68.25V-0.33Q65.33 0.65 59.48 1.46Q53.62 2.27 46.80 2.27Q32.83 2.27 26.49 -2.60Q20.15 -7.48 20.15 -20.15ZM68.25 -60.77H20.15V-154.05Q23.07 -155.03 29.09 -156.00Q35.10 -156.97 41.93 -156.97Q55.90 -156.97 62.08 -152.26Q68.25 -147.55 68.25 -134.22ZM256.43 -101.08V-70.53H208.00V-99.45Q208.00 -111.48 201.01 -117.16Q194.03 -122.85 182.65 -122.85Q174.53 -122.85 167.70 -120.74Q160.88 -118.62 155.35 -115.70V-70.53H107.25V-121.23Q107.25 -129.35 110.66 -134.71Q114.08 -140.08 120.58 -144.30Q130.98 -151.45 147.23 -156.16Q163.48 -160.88 182.98 -160.88Q218.08 -160.88 237.25 -145.44Q256.43 -130.00 256.43 -101.08ZM107.25 -85.48H155.35V-0.33Q152.10 0.65 146.25 1.46Q140.40 2.27 133.58 2.27Q119.93 2.27 113.59 -2.60Q107.25 -7.48 107.25 -20.15ZM208.00 -85.48H256.43V-0.33Q253.18 0.65 247.33 1.46Q241.48 2.27 234.65 2.27Q221.00 2.27 214.50 -2.60Q208.00 -7.48 208.00 -20.15Z" fill="#FFFFFF"/></g></g><path d="M1066.13,79.91A79.91,79.91 0 0 1 1146.03,0.00L1225.94,0.00L1225.94,79.91A79.91,79.91 0 0 1 1146.03,159.81L1066.13,159.81Z" fill="#FFFFFF"/><path d="M994.21,151.82A79.91,79.91 0 0 1 1074.12,71.91L1154.02,71.91L1154.02,151.82A79.91,79.91 0 0 1 1074.12,231.72L994.21,231.72Z" fill="#FFFFFF" opacity="0.55"/></svg>